<svg width="24" height="24" viewBox="0 0 24 24" fill="none" xmlns="http://www.w3.org/2000/svg">
<path fill-rule="evenodd" clip-rule="evenodd" d="M18.2268 5H5.77226C5.34599 5 5 5.34599 5 5.77275V18.2273C5 18.654 5.3455 19 5.77226 19H12.4783V13.5864H10.6599V11.4667H12.4783V9.90706C12.4783 8.09878 13.5825 7.11484 15.1956 7.11484C15.9679 7.11484 16.6321 7.17178 16.8258 7.19805V9.0871L15.7134 9.08759C14.8355 9.08759 14.6657 9.50462 14.6657 10.1173V11.4667H16.764L16.4905 13.5864H14.6657V19H18.2268C18.6535 19 18.9995 18.654 18.9995 18.2273V5.77275C18.9995 5.34599 18.6535 5 18.2268 5" fill="black"/>
<path fill-rule="evenodd" clip-rule="evenodd" d="M14.6655 18.9996V13.5855H16.4908L16.7638 11.4668H14.6655V10.1169C14.6655 9.50471 14.8358 9.08768 15.7132 9.08768L16.8256 9.08719V7.19765C16.6319 7.17138 15.9682 7.11444 15.1954 7.11444C13.5823 7.11444 12.4782 8.09887 12.4782 9.90665V11.4668H10.6602V13.5855H12.4782V18.9996H14.6655Z" fill="white"/>
</svg>
