<svg width="24" height="24" viewBox="0 0 24 24" fill="none" xmlns="http://www.w3.org/2000/svg">
<path fill-rule="evenodd" clip-rule="evenodd" d="M7.46386 3.53695C7.92091 3.47429 8.36872 3.70249 8.58661 4.10912L9.56769 5.94003C9.99657 6.74042 9.85071 7.72723 9.20862 8.36931L7.37848 10.1995C8.1085 11.3514 9.04212 12.575 10.2294 13.7623C11.4156 14.9485 12.6394 15.8827 13.7914 16.614L15.6223 14.783C16.2644 14.141 17.2512 13.9951 18.0516 14.424L19.8838 15.4057C20.2883 15.6225 20.5164 16.0668 20.4569 16.5218L20.0987 19.2587C19.9931 20.066 19.2048 20.6614 18.3571 20.4184C16.7721 19.9641 12.7803 18.5336 9.11923 14.8724C7.64795 13.4012 6.53928 11.8787 5.71062 10.4829C4.47476 8.40105 3.85855 6.59544 3.58927 5.6468C3.34975 4.803 3.9402 4.02008 4.74136 3.91023L7.46386 3.53695Z" fill="black" fill-opacity="0.85"/>
</svg>
