<svg width="24" height="24" viewBox="0 0 24 24" fill="none" xmlns="http://www.w3.org/2000/svg">
<path d="M15.3333 7.83333C15.3333 9.67428 13.8409 11.1667 12 11.1667C10.1591 11.1667 8.66667 9.67428 8.66667 7.83333C8.66667 5.99238 10.1591 4.5 12 4.5C13.8409 4.5 15.3333 5.99238 15.3333 7.83333Z" fill="black" fill-opacity="0.85"/>
<path d="M4.50001 16.4685V19.5002H19.5V16.4685C19.51 16.036 19.3996 15.6093 19.181 15.236C18.9625 14.8626 18.6445 14.5574 18.2625 14.3544L18.0917 14.271C16.1998 13.3269 14.1144 12.8354 12 12.8354C9.88564 12.8354 7.8002 13.3269 5.90834 14.271L5.73751 14.3544C5.35554 14.5574 5.03752 14.8626 4.819 15.236C4.60047 15.6093 4.49003 16.036 4.50001 16.4685Z" fill="black" fill-opacity="0.85"/>
</svg>
