<svg width="24" height="24" viewBox="0 0 24 24" fill="none" xmlns="http://www.w3.org/2000/svg">
<mask id="mask0_10448_24705" style="mask-type:alpha" maskUnits="userSpaceOnUse" x="3" y="5" width="18" height="15">
<path fill-rule="evenodd" clip-rule="evenodd" d="M3 5H21V19.577H3V5Z" fill="white"/>
</mask>
<g mask="url(#mask0_10448_24705)">
<path fill-rule="evenodd" clip-rule="evenodd" d="M8.66087 19.5771C15.4537 19.5771 19.1682 13.9694 19.1682 9.10689C19.1682 8.94744 19.165 8.78882 19.1577 8.63116C19.8786 8.11174 20.5055 7.46355 21 6.72576C20.3383 7.01867 19.6262 7.21601 18.8793 7.30507C19.6416 6.84953 20.227 6.12875 20.503 5.2694C19.7894 5.69091 18.9993 5.99751 18.1581 6.16263C17.4843 5.44738 16.5245 5 15.4625 5C13.423 5 11.7689 6.64804 11.7689 8.67971C11.7689 8.96846 11.8014 9.24933 11.8648 9.51873C8.79563 9.36495 6.07393 7.90056 4.2528 5.6739C3.93527 6.21767 3.75263 6.84953 3.75263 7.52357C3.75263 8.8003 4.40463 9.92725 5.39597 10.5866C4.79032 10.5681 4.22116 10.4021 3.72348 10.1263C3.72265 10.1416 3.72265 10.1571 3.72265 10.1733C3.72265 11.9556 4.99572 13.4435 6.68541 13.7809C6.37523 13.865 6.04881 13.9104 5.71184 13.9104C5.47397 13.9104 5.24261 13.8869 5.01764 13.844C5.48771 15.306 6.85098 16.3699 8.46768 16.3999C7.20336 17.3869 5.61122 17.9751 3.881 17.9751C3.58289 17.9751 3.28909 17.9581 3 17.9242C4.63446 18.9679 6.57494 19.5771 8.66087 19.5771" fill="#262626"/>
</g>
</svg>
