<svg width="24" height="24" viewBox="0 0 24 24" fill="none" xmlns="http://www.w3.org/2000/svg">
<path fill-rule="evenodd" clip-rule="evenodd" d="M12.0335 19.9388H12.0302C10.6969 19.9383 9.38679 19.6038 8.22319 18.9691L4 20.077L5.1302 15.9488C4.43304 14.7406 4.06619 13.3701 4.06679 11.966C4.06854 7.5736 7.64233 4 12.0334 4C14.1646 4.00092 16.1648 4.83057 17.6689 6.33641C19.173 7.84218 20.0008 9.84371 20 11.9723C19.9982 16.3638 16.4259 19.937 12.0335 19.9388ZM15.7752 13.6875C15.9141 13.7545 16.0078 13.7999 16.0478 13.8667C16.0976 13.9497 16.0976 14.3482 15.9318 14.8133C15.7658 15.2782 14.9706 15.7026 14.5881 15.7597C14.2452 15.811 13.8112 15.8324 13.3344 15.6809C13.0453 15.5891 12.6745 15.4667 12.1996 15.2616C10.3335 14.4558 9.07237 12.6471 8.83402 12.3053C8.81732 12.2813 8.80564 12.2646 8.79913 12.2559L8.79752 12.2537C8.69218 12.1132 7.98633 11.1714 7.98633 10.1967C7.98633 9.27979 8.43673 8.79919 8.64405 8.57797C8.65825 8.56281 8.67131 8.54887 8.68301 8.5361C8.86547 8.33681 9.08114 8.28699 9.21383 8.28699C9.34652 8.28699 9.47936 8.28821 9.59534 8.29404C9.60965 8.29476 9.62454 8.29467 9.63993 8.29458C9.75593 8.2939 9.90054 8.29305 10.0432 8.63574C10.0981 8.76762 10.1784 8.96313 10.2631 9.16934C10.4344 9.58635 10.6236 10.0471 10.6569 10.1138C10.7067 10.2134 10.7399 10.3296 10.6735 10.4625C10.6636 10.4824 10.6544 10.5012 10.6456 10.5192C10.5957 10.621 10.5591 10.6958 10.4745 10.7946C10.4412 10.8334 10.4068 10.8753 10.3725 10.9171C10.304 11.0005 10.2355 11.0839 10.1759 11.1433C10.0762 11.2426 9.9725 11.3503 10.0886 11.5495C10.2047 11.7488 10.6042 12.4007 11.196 12.9285C11.8321 13.4959 12.385 13.7357 12.6652 13.8573C12.7199 13.881 12.7643 13.9002 12.7968 13.9165C12.9958 14.0162 13.1119 13.9995 13.228 13.8667C13.3441 13.7338 13.7256 13.2854 13.8583 13.0862C13.991 12.887 14.1237 12.9201 14.3061 12.9865C14.4886 13.053 15.4673 13.5345 15.6664 13.6342C15.7052 13.6536 15.7415 13.6712 15.7752 13.6875Z" fill="black"/>
</svg>
